<svg width="221" height="35" viewBox="0 0 221 35" fill="none" xmlns="http://www.w3.org/2000/svg">
<g clip-path="url(#clip0_113_12)">
<path d="M0.759766 35H145.196V0H0.759766V35Z" fill="#389FD1"/>
<path d="M149.065 35H220.555V0H149.065V35Z" fill="#898989"/>
<path d="M18.8822 13.7674H16.3899V17.506H18.8822C20.09 17.506 20.857 16.7582 20.857 15.6464C20.857 14.534 20.09 13.7674 18.8822 13.7674ZM19.0165 19.9028H16.3899V25.041H13.7246V11.3901H19.0165C21.8348 11.3901 23.5219 13.3266 23.5219 15.6464C23.5219 17.9661 21.8348 19.9028 19.0165 19.9028ZM38.8038 25.041V19.3277H34.1832V25.041H31.5182V11.3901H34.1832V16.9692H38.8038V11.3901H41.4688V25.041H38.8038ZM50.4051 25.041H53.0699V11.3902H50.4051V25.041ZM62.0055 25.041V11.3901H64.6704V22.6639H70.8635V25.041H62.0057H62.0055ZM78.7828 25.041V11.3901H81.4482V22.6639H87.6408V25.041H78.7829H78.7828ZM95.5606 25.041H98.2254V11.3902H95.5606V25.041ZM112.318 13.7674H109.826V17.506H112.318C113.526 17.506 114.293 16.7582 114.293 15.6464C114.293 14.534 113.526 13.7674 112.318 13.7674ZM112.453 19.9028H109.826V25.041H107.161V11.3901H112.453C115.271 11.3901 116.958 13.3266 116.958 15.6464C116.958 17.9661 115.271 19.9028 112.453 19.9028ZM128.712 25.1558C126.642 25.1558 125.07 24.7152 123.728 23.3537L125.453 21.6285C126.316 22.4912 127.485 22.7786 128.751 22.7786C130.323 22.7786 131.166 22.1843 131.166 21.0913C131.166 20.612 131.032 20.2097 130.745 19.9411C130.476 19.6921 130.169 19.5577 129.537 19.4619L127.888 19.2318C126.718 19.0587 125.856 18.6948 125.242 18.1003C124.59 17.4483 124.264 16.5663 124.264 15.4162C124.264 12.9811 126.066 11.2748 129.019 11.2748C130.898 11.2748 132.259 11.7351 133.429 12.8661L131.741 14.5337C130.879 13.7097 129.844 13.5944 128.942 13.5944C127.523 13.5944 126.833 14.3808 126.833 15.3201C126.833 15.665 126.948 16.0295 127.236 16.298C127.504 16.5472 127.946 16.758 128.501 16.8349L130.112 17.0648C131.358 17.2375 132.144 17.5826 132.719 18.1192C133.448 18.8097 133.774 19.8068 133.774 21.0149C133.774 23.6605 131.569 25.1557 128.712 25.1557L128.712 25.1558Z" fill="#FEFEFE"/>
<path d="M160.522 25.0409V11.39H163.187V22.6638H169.38V25.0409H160.522H160.522ZM181.882 15.4164L180.156 20.3821H183.55L181.882 15.4164ZM185.064 25.0409L184.259 22.6253H179.408L178.584 25.0409H175.804L180.77 11.39H182.859L187.844 25.0409H185.064ZM206.402 25.0409H204.179L201.667 16.7582L199.156 25.0409H196.932L193.289 11.39H196.069L198.178 19.9986L200.67 11.39H202.664L205.156 19.9986L207.285 11.39H210.064L206.402 25.0409H206.402Z" fill="#FEFEFE"/>
</g>
<defs>
<clipPath id="clip0_113_12">
<rect width="219.796" height="35" fill="white" transform="translate(0.759766)"/>
</clipPath>
</defs>
</svg>
